<?xml version="1.0" encoding="UTF-8" standalone="no"?> <svg xmlns="http://www.w3.org/2000/svg" xmlns:xlink="http://www.w3.org/1999/xlink" viewBox="0 0 64 64"><defs><style>.cls-1{fill:url(#linear-gradient);}.cls-2{fill:url(#linear-gradient-2);}</style><linearGradient id="linear-gradient" x1="6" y1="32" x2="42.38" y2="32" gradientUnits="userSpaceOnUse"><stop offset="0" stop-color="#17a6d7"/><stop offset="1" stop-color="#9d31fe"/></linearGradient><linearGradient id="linear-gradient-2" x1="18.22" x2="57.97" xlink:href="#linear-gradient"/></defs><g id="Layer_83" data-name="Layer 83"><path class="cls-1" d="M40.38,42.27a2,2,0,0,0-2,2V58H10V6H38.38V19.73a2,2,0,0,0,4,0V4a2,2,0,0,0-2-2H8A2,2,0,0,0,6,4V60a2,2,0,0,0,2,2H40.38a2,2,0,0,0,2-2V44.27A2,2,0,0,0,40.38,42.27Z"/><path class="cls-2" d="M56,30H32.46V21.76a1.72,1.72,0,0,0,0-.39,2,2,0,0,0-3.37-1L18.81,30.59a2,2,0,0,0,0,2.82L29.05,43.65a1.81,1.81,0,0,0,.3.25,2,2,0,0,0,3.11-1.66V34H56A2,2,0,0,0,56,30ZM28.46,26.59V37.41L23.05,32Z"/></g></svg>