<?xml version="1.0" encoding="UTF-8" standalone="no"?> <svg xmlns="http://www.w3.org/2000/svg" xmlns:xlink="http://www.w3.org/1999/xlink" viewBox="0 0 64 64"><defs><style>.cls-1{fill:url(#linear-gradient);}.cls-2{fill:url(#linear-gradient-2);}.cls-3{fill:url(#linear-gradient-3);}</style><linearGradient id="linear-gradient" x1="2.03" y1="25.79" x2="62" y2="25.79" gradientUnits="userSpaceOnUse"><stop offset="0" stop-color="#17a6d7"/><stop offset="1" stop-color="#9d31fe"/></linearGradient><linearGradient id="linear-gradient-2" x1="24.69" y1="54.85" x2="35.31" y2="54.85" xlink:href="#linear-gradient"/><linearGradient id="linear-gradient-3" x1="42.1" y1="54.85" x2="52.72" y2="54.85" xlink:href="#linear-gradient"/></defs><g id="Layer_24" data-name="Layer 24"><path class="cls-1" d="M61.58,12.88A2,2,0,0,0,60,12.1H14.26L11.89,5.15A2,2,0,0,0,10,3.79H4a2,2,0,0,0,0,4H8.57L21.72,46.44a2,2,0,0,0,1.89,1.35H52a2,2,0,0,0,0-4H25l-1.46-4.31H54A2,2,0,0,0,55.94,38l6-23.38A2,2,0,0,0,61.58,12.88Zm-9.13,22.6H22.22L15.62,16.1h41.8Z"/><path class="cls-2" d="M30,49.49c-7.08.22-7.08,10.49,0,10.72C37.08,60,37.08,49.71,30,49.49Zm0,6.72a1.36,1.36,0,0,1,0-2.72A1.36,1.36,0,0,1,30,56.21Z"/><path class="cls-3" d="M47.41,49.49c-7.08.22-7.08,10.49,0,10.72C54.49,60,54.49,49.71,47.41,49.49Zm0,6.72a1.36,1.36,0,0,1,0-2.72A1.36,1.36,0,0,1,47.41,56.21Z"/></g></svg>