<?xml version="1.0" encoding="UTF-8" standalone="no"?> <svg xmlns="http://www.w3.org/2000/svg" xmlns:xlink="http://www.w3.org/1999/xlink" viewBox="0 0 64 64"><defs><style>.cls-1{fill:url(#linear-gradient);}.cls-2{fill:url(#linear-gradient-2);}</style><linearGradient id="linear-gradient" x1="17.17" y1="31.96" x2="46.83" y2="31.96" gradientUnits="userSpaceOnUse"><stop offset="0" stop-color="#17a6d7"/><stop offset="1" stop-color="#9d31fe"/></linearGradient><linearGradient id="linear-gradient-2" x1="2" y1="32" x2="62" y2="32" xlink:href="#linear-gradient"/></defs><g id="Layer_96" data-name="Layer 96"><path class="cls-1" d="M32,17.17A14.84,14.84,0,0,0,17.17,32C18,51.68,46,51.67,46.83,32A14.84,14.84,0,0,0,32,17.17Zm0,25.66A10.84,10.84,0,0,1,21.17,32c.59-14.37,21.07-14.37,21.66,0A10.84,10.84,0,0,1,32,42.83Z"/><path class="cls-2" d="M60,26.13H55.64a23.76,23.76,0,0,0-2.78-6.69L56,16.35a2,2,0,0,0,0-2.83L50.48,8.05a2.06,2.06,0,0,0-2.83,0l-3.09,3.09a23.76,23.76,0,0,0-6.69-2.78V4a2,2,0,0,0-2-2H28.13a2,2,0,0,0-2,2V8.36a23.76,23.76,0,0,0-6.69,2.78L16.35,8.05a2,2,0,0,0-2.83,0L8.05,13.52a2,2,0,0,0,0,2.83l3.09,3.09a23.76,23.76,0,0,0-2.78,6.69H4a2,2,0,0,0-2,2v7.74a2,2,0,0,0,2,2H8.36a23.76,23.76,0,0,0,2.78,6.69L8.05,47.65a2,2,0,0,0,0,2.83L13.52,56a2,2,0,0,0,2.83,0l3.09-3.09a23.76,23.76,0,0,0,6.69,2.78V60a2,2,0,0,0,2,2h7.74a2,2,0,0,0,2-2V55.64a23.76,23.76,0,0,0,6.69-2.78L47.65,56a2,2,0,0,0,2.83,0L56,50.48a2,2,0,0,0,0-2.83l-3.09-3.09a23.76,23.76,0,0,0,2.78-6.69H60a2,2,0,0,0,2-2V28.13A2,2,0,0,0,60,26.13Zm-2,7.74H54a2.08,2.08,0,0,0-1.68.9,2.62,2.62,0,0,0-.3.76,19.7,19.7,0,0,1-3.37,8.15,2.11,2.11,0,0,0-.32.74,2,2,0,0,0,.54,1.83l2.82,2.81-2.65,2.65-2.81-2.82a2,2,0,0,0-1.83-.54,2.22,2.22,0,0,0-.74.32A19.7,19.7,0,0,1,35.53,52a2.19,2.19,0,0,0-.9.42A2,2,0,0,0,33.87,54v4H30.13V54a2,2,0,0,0-.76-1.56,2.19,2.19,0,0,0-.9-.42,19.7,19.7,0,0,1-8.15-3.37,2.22,2.22,0,0,0-.74-.32,2,2,0,0,0-1.83.54l-2.81,2.82-2.65-2.65,2.82-2.81a2,2,0,0,0,.54-1.83,2.11,2.11,0,0,0-.32-.74A19.7,19.7,0,0,1,12,35.53a2.23,2.23,0,0,0-.42-.91A2,2,0,0,0,10,33.87H6V30.13h4A2,2,0,0,0,11.78,29a22.3,22.3,0,0,1,3.55-8.68,2,2,0,0,0,.35-1,2,2,0,0,0-.57-1.56l-2.82-2.81,2.65-2.65,2.81,2.82a2,2,0,0,0,2.56.22A19.93,19.93,0,0,1,28.5,12a2.19,2.19,0,0,0,1-.54,2,2,0,0,0,.6-1.43V6h3.74v4a2,2,0,0,0,.6,1.43,2.2,2.2,0,0,0,1.07.55,22.27,22.27,0,0,1,8.66,3.63,2,2,0,0,0,2-.48l2.81-2.82,2.65,2.65-2.82,2.81a2,2,0,0,0-.57,1.56,2,2,0,0,0,.35,1A22.3,22.3,0,0,1,52.22,29,2,2,0,0,0,54,30.13h4Z"/></g></svg>